<svg width="18" height="18" viewBox="0 0 18 18" fill="none" xmlns="http://www.w3.org/2000/svg">
<path fill-rule="evenodd" clip-rule="evenodd" d="M9.00093 0.466797C6.68339 0.466797 6.39255 0.47693 5.48232 0.518353C4.57386 0.559953 3.95377 0.703777 3.41118 0.914802C2.84993 1.13276 2.37384 1.42432 1.89952 1.89881C1.42485 2.37313 1.13329 2.84922 0.914624 3.41029C0.703066 3.95305 0.559065 4.57333 0.518175 5.48143C0.477464 6.39166 0.466797 6.68268 0.466797 9.00022C0.466797 11.3178 0.477108 11.6077 0.518353 12.5179C0.560131 13.4264 0.703955 14.0465 0.914802 14.5891C1.13294 15.1503 1.4245 15.6264 1.89899 16.1007C2.37313 16.5754 2.84922 16.8677 3.41012 17.0856C3.95306 17.2967 4.57333 17.4405 5.4816 17.4821C6.39184 17.5235 6.68251 17.5336 8.99986 17.5336C11.3176 17.5336 11.6075 17.5235 12.5178 17.4821C13.4262 17.4405 14.047 17.2967 14.59 17.0856C15.151 16.8677 15.6264 16.5754 16.1006 16.1007C16.5752 15.6264 16.8668 15.1503 17.0855 14.5893C17.2952 14.0465 17.4392 13.4262 17.4819 12.5181C17.5228 11.6079 17.5335 11.3178 17.5335 9.00022C17.5335 6.68268 17.5228 6.39184 17.4819 5.4816C17.4392 4.57315 17.2952 3.95306 17.0855 3.41047C16.8668 2.84922 16.5752 2.37313 16.1006 1.89881C15.6259 1.42414 15.1512 1.13258 14.5894 0.914802C14.0454 0.703777 13.425 0.559953 12.5165 0.518353C11.6063 0.47693 11.3165 0.466797 8.99826 0.466797H9.00093ZM8.23537 2.00457C8.46258 2.00421 8.71609 2.00457 9.00089 2.00457C11.2793 2.00457 11.5494 2.01274 12.4491 2.05363C13.2811 2.09168 13.7327 2.2307 14.0335 2.3475C14.4317 2.50217 14.7156 2.68706 15.0141 2.98573C15.3128 3.2844 15.4977 3.56885 15.6527 3.96708C15.7695 4.26752 15.9087 4.71908 15.9466 5.55109C15.9875 6.45066 15.9963 6.72088 15.9963 8.99824C15.9963 11.2756 15.9875 11.5458 15.9466 12.4454C15.9085 13.2774 15.7695 13.729 15.6527 14.0294C15.498 14.4276 15.3128 14.7112 15.0141 15.0097C14.7154 15.3084 14.4319 15.4932 14.0335 15.6479C13.733 15.7652 13.2811 15.9039 12.4491 15.942C11.5495 15.9828 11.2793 15.9917 9.00089 15.9917C6.72229 15.9917 6.45224 15.9828 5.55268 15.942C4.72067 15.9036 4.26911 15.7645 3.96813 15.6477C3.5699 15.4931 3.28546 15.3082 2.98679 15.0095C2.68812 14.7108 2.50323 14.4271 2.3482 14.0287C2.2314 13.7282 2.0922 13.2767 2.05433 12.4447C2.01344 11.5451 2.00527 11.2749 2.00527 8.99611C2.00527 6.71733 2.01344 6.44852 2.05433 5.54896C2.09238 4.71695 2.2314 4.26539 2.3482 3.96459C2.50287 3.56636 2.68812 3.28191 2.98679 2.98324C3.28546 2.68457 3.5699 2.49968 3.96813 2.34466C4.26893 2.22732 4.72067 2.08866 5.55268 2.05043C6.33989 2.01488 6.64496 2.00421 8.23537 2.00243V2.00457ZM13.556 3.42147C12.9906 3.42147 12.532 3.87961 12.532 4.44513C12.532 5.01047 12.9906 5.46914 13.556 5.46914C14.1213 5.46914 14.58 5.01047 14.58 4.44513C14.58 3.87979 14.1213 3.42147 13.556 3.42147ZM9.00095 4.61793C6.58083 4.61793 4.61868 6.58008 4.61868 9.0002C4.61868 11.4203 6.58083 13.3816 9.00095 13.3816C11.4211 13.3816 13.3825 11.4203 13.3825 9.0002C13.3825 6.58008 11.4211 4.61793 9.00095 4.61793ZM9.00091 6.15572C10.5718 6.15572 11.8454 7.42916 11.8454 9.0002C11.8454 10.5711 10.5718 11.8447 9.00091 11.8447C7.42987 11.8447 6.15644 10.5711 6.15644 9.0002C6.15644 7.42916 7.42987 6.15572 9.00091 6.15572Z" fill="#647B64"/>
</svg>
