<svg width="28" height="28" viewBox="0 0 28 28" fill="none" xmlns="http://www.w3.org/2000/svg">
<path fill-rule="evenodd" clip-rule="evenodd" d="M4.01852 8.16671C3.73215 8.16671 3.5 7.64437 3.5 7.00004C3.5 6.35571 3.73215 5.83337 4.01852 5.83337H12.3148C12.6012 5.83337 12.8333 6.35571 12.8333 7.00004C12.8333 7.64437 12.6012 8.16671 12.3148 8.16671H4.01852ZM4.66667 15.1667C4.02233 15.1667 3.5 14.6444 3.5 14C3.5 13.3557 4.02233 12.8334 4.66667 12.8334H23.3333C23.9777 12.8334 24.5 13.3557 24.5 14C24.5 14.6444 23.9777 15.1667 23.3333 15.1667H4.66667ZM15 20.9999C15 21.5522 15.2239 21.9999 15.5 21.9999H23.5C23.7761 21.9999 24 21.5522 24 20.9999C24 20.4476 23.7761 19.9999 23.5 19.9999H15.5C15.2239 19.9999 15 20.4476 15 20.9999Z" fill="#222B45"/>
<mask id="mask0_1:695" style="mask-type:alpha" maskUnits="userSpaceOnUse" x="3" y="5" width="22" height="17">
<path fill-rule="evenodd" clip-rule="evenodd" d="M4.01852 8.16671C3.73215 8.16671 3.5 7.64437 3.5 7.00004C3.5 6.35571 3.73215 5.83337 4.01852 5.83337H12.3148C12.6012 5.83337 12.8333 6.35571 12.8333 7.00004C12.8333 7.64437 12.6012 8.16671 12.3148 8.16671H4.01852ZM4.66667 15.1667C4.02233 15.1667 3.5 14.6444 3.5 14C3.5 13.3557 4.02233 12.8334 4.66667 12.8334H23.3333C23.9777 12.8334 24.5 13.3557 24.5 14C24.5 14.6444 23.9777 15.1667 23.3333 15.1667H4.66667ZM15 20.9999C15 21.5522 15.2239 21.9999 15.5 21.9999H23.5C23.7761 21.9999 24 21.5522 24 20.9999C24 20.4476 23.7761 19.9999 23.5 19.9999H15.5C15.2239 19.9999 15 20.4476 15 20.9999Z" fill="white"/>
</mask>
<g mask="url(#mask0_1:695)">
</g>
</svg>
