<svg width="24" height="24" viewBox="0 0 24 24" fill="none" xmlns="http://www.w3.org/2000/svg">
<path d="M12 18.75C11.59 18.75 11.25 18.41 11.25 18V17C11.25 16.59 11.59 16.25 12 16.25C12.41 16.25 12.75 16.59 12.75 17V18C12.75 18.41 12.41 18.75 12 18.75Z" fill="#647B64"/>
<path d="M12 22.75C11.59 22.75 11.25 22.41 11.25 22V21C11.25 20.59 11.59 20.25 12 20.25C12.41 20.25 12.75 20.59 12.75 21V22C12.75 22.41 12.41 22.75 12 22.75Z" fill="#647B64"/>
<path d="M2 22.75C1.94 22.75 1.88 22.74 1.82 22.73C1.42 22.63 1.17 22.22 1.27 21.82L2.27 17.82C2.37 17.42 2.77 17.17 3.18 17.27C3.58 17.37 3.83 17.78 3.73 18.18L2.73 22.18C2.64 22.52 2.34 22.75 2 22.75Z" fill="#647B64"/>
<path d="M21.7526 22.5026C21.4126 22.5026 21.1126 22.2726 21.0226 21.9326L20.0226 17.9326C19.9226 17.5326 20.1626 17.1226 20.5726 17.0226C20.9726 16.9226 21.3826 17.1626 21.4826 17.5726L22.4826 21.5726C22.5826 21.9726 22.3426 22.3826 21.9326 22.4826C21.8726 22.4926 21.8126 22.5026 21.7526 22.5026Z" fill="#647B64"/>
<path d="M19.14 5.3C19.14 5.6 18.89 5.84 18.6 5.84H5.53C5.23 5.84 4.99 5.59 4.99 5.3C4.99 5 5.24 4.76 5.53 4.76H6.27L6.55 3.45C6.81 2.17 7.35 1 9.51 1H14.6C16.76 1 17.31 2.17 17.57 3.44L17.85 4.75H18.59C18.89 4.75 19.14 5 19.14 5.3Z" fill="#647B64"/>
<path d="M19.45 9.39999C19.34 8.19999 19.02 6.92999 16.69 6.92999H7.43C5.1 6.92999 4.79 8.20999 4.67 9.39999L4.26 13.82C4.21 14.37 4.39 14.92 4.77 15.34C5.16 15.76 5.7 16 6.28 16H7.64C8.82 16 9.04 15.33 9.19 14.88L9.34 14.44C9.51 13.94 9.55 13.82 10.2 13.82H13.92C14.57 13.82 14.59 13.89 14.78 14.44L14.93 14.88C15.07 15.33 15.3 16 16.47 16H17.83C18.4 16 18.95 15.76 19.34 15.34C19.72 14.93 19.9 14.37 19.85 13.82L19.45 9.39999ZM9.88 10.92H7.71C7.41 10.92 7.17 10.67 7.17 10.38C7.17 10.09 7.42 9.83999 7.71 9.83999H9.89C10.19 9.83999 10.43 10.09 10.43 10.38C10.43 10.67 10.18 10.92 9.88 10.92ZM16.41 10.92H14.23C13.93 10.92 13.69 10.67 13.69 10.38C13.69 10.09 13.94 9.83999 14.23 9.83999H16.41C16.71 9.83999 16.95 10.09 16.95 10.38C16.95 10.67 16.71 10.92 16.41 10.92Z" fill="#647B64"/>
</svg>
