<svg width="54" height="54" viewBox="0 0 54 54" fill="none" xmlns="http://www.w3.org/2000/svg">
<path d="M35.053 0.94666C29.7196 0.119993 24.2797 0.119993 18.9464 0.94666C16.7597 1.29333 15.1597 3.15998 15.1597 5.34664V15.16H5.34634C3.15967 15.16 1.29302 16.76 0.946355 18.9467C0.119688 24.28 0.119688 29.7199 0.946355 35.0533C1.29302 37.2399 3.15967 38.84 5.34634 38.84H9.82632C10.573 38.84 11.1597 38.2533 11.1597 37.5066V32.92C11.1597 27.4533 15.613 23 21.0797 23H32.9197C33.9863 23 34.8397 22.1466 34.8397 21.08V12.4933C34.8397 11.7466 35.4263 11.16 36.173 11.16H37.5063C38.253 11.16 38.8397 10.5733 38.8397 9.82662V5.34664C38.8397 3.15998 37.2396 1.29333 35.053 0.94666ZM22.5463 9.87993C21.453 9.87993 20.413 8.83996 20.413 7.74663C20.413 6.62663 21.453 5.58663 22.5463 5.58663C23.0796 5.58663 23.6664 5.82666 24.0397 6.2C24.4397 6.57333 24.7064 7.18663 24.7064 7.74663C24.7064 8.83996 23.6663 9.87993 22.5463 9.87993Z" fill="#647B64"/>
<path d="M53.0528 18.9466C52.7061 16.76 50.8395 15.1599 48.6528 15.1599H40.1728C39.4262 15.1599 38.8395 15.7466 38.8395 16.4933V21.0799C38.8395 24.3333 36.1995 26.9999 32.9195 26.9999H21.0795C17.7995 26.9999 15.1595 29.64 15.1595 32.92V48.6533C15.1595 50.8399 16.7595 52.7066 18.9462 53.0533C24.2795 53.8799 29.7195 53.8799 35.0528 53.0533C37.2395 52.7066 38.8395 50.8399 38.8395 48.6533V38.84H48.6528C50.8395 38.84 52.7061 37.2399 53.0528 35.0533C53.8795 29.7199 53.8795 24.28 53.0528 18.9466ZM31.4529 48.4133C30.3595 48.4133 29.2928 47.3733 29.2928 46.2533C29.2928 45.1333 30.3329 44.0933 31.4529 44.0933C31.9595 44.0933 32.5729 44.3333 32.9462 44.68C33.3462 45.0533 33.6129 45.6933 33.6129 46.2266C33.5862 47.3733 32.5462 48.4133 31.4529 48.4133Z" fill="#647B64"/>
</svg>
