<svg width="28" height="28" viewBox="0 0 28 28" fill="none" xmlns="http://www.w3.org/2000/svg">
<path d="M21.8283 11.0716C21.7116 11.0716 21.595 11.0483 21.4783 11.0016C21.035 10.8033 20.8367 10.29 21.0233 9.84663C21.245 9.34496 21.1167 8.60996 20.7083 8.0033C20.3 7.38496 19.6817 6.96496 19.1217 6.99996C18.6083 6.99996 18.2467 6.61496 18.235 6.13663C18.235 5.64663 18.62 5.26163 19.0983 5.24996C20.3 5.22663 21.4317 5.91496 22.1667 7.0233C22.9133 8.1433 23.0883 9.48496 22.6333 10.535C22.4933 10.8733 22.1666 11.0716 21.8283 11.0716Z" fill="white"/>
<path d="M25.4567 12.2266C25.3751 12.2266 25.3051 12.215 25.2234 12.1916C24.7567 12.0633 24.4884 11.585 24.6167 11.1183C25.0601 9.53164 24.6867 7.64164 23.6251 6.05498C22.5634 4.46831 20.9534 3.40664 19.3084 3.20831C18.8301 3.14998 18.4917 2.71831 18.5501 2.23998C18.6084 1.76164 19.0517 1.41164 19.5184 1.48164C21.6534 1.73831 23.7301 3.09164 25.0717 5.09831C26.4134 7.10498 26.8684 9.53164 26.2967 11.6083C26.1917 11.97 25.8417 12.2266 25.4567 12.2266Z" fill="white"/>
<path d="M19.9733 13.7433C19.9733 14.0933 19.6817 14.385 19.3317 14.385H4.00165C3.65165 14.385 3.35999 14.0933 3.35999 13.7433C3.35999 13.3933 3.65165 13.1016 4.00165 13.1016H4.86499L5.19165 11.5616C5.49499 10.0683 6.13665 8.70331 8.67999 8.70331H14.665C17.2083 8.70331 17.8383 10.08 18.1533 11.5616L18.48 13.1016H19.3433C19.6817 13.1016 19.9733 13.3933 19.9733 13.7433Z" fill="white"/>
<path d="M20.3348 18.5616C20.2065 17.1616 19.8332 15.6566 17.1032 15.6566H6.22984C3.49984 15.6566 3.12651 17.1616 2.99817 18.5616L2.51984 23.7533C2.46151 24.3949 2.67151 25.0483 3.11484 25.5383C3.56984 26.0283 4.19984 26.3083 4.88817 26.3083H6.48651C7.86317 26.3083 8.13151 25.5149 8.30651 25.0016L8.48151 24.4883C8.67984 23.9049 8.72651 23.7533 9.49651 23.7533H13.8598C14.6298 23.7533 14.6532 23.8349 14.8748 24.4883L15.0498 25.0016C15.2248 25.5266 15.4815 26.3083 16.8698 26.3083H18.4682C19.1448 26.3083 19.7865 26.0283 20.2415 25.5383C20.6848 25.0483 20.8948 24.4066 20.8365 23.7533L20.3348 18.5616ZM9.11151 20.3349H6.55651C6.20651 20.3349 5.91484 20.0433 5.91484 19.6933C5.91484 19.3433 6.20651 19.0516 6.55651 19.0516H9.11151C9.46151 19.0516 9.75317 19.3433 9.75317 19.6933C9.75317 20.0433 9.46151 20.3349 9.11151 20.3349ZM16.7765 20.3349H14.2215C13.8715 20.3349 13.5798 20.0433 13.5798 19.6933C13.5798 19.3433 13.8715 19.0516 14.2215 19.0516H16.7765C17.1265 19.0516 17.4182 19.3433 17.4182 19.6933C17.4182 20.0433 17.1265 20.3349 16.7765 20.3349Z" fill="white"/>
</svg>
