<svg width="64" height="64" viewBox="0 0 64 64" fill="none" xmlns="http://www.w3.org/2000/svg">
<path d="M31.9998 5.33328C17.2798 5.33328 5.33314 17.2799 5.33314 32C5.33314 46.72 17.2798 58.6666 31.9998 58.6666C46.7198 58.6666 58.6665 46.72 58.6665 32C58.6665 17.2799 46.7198 5.33328 31.9998 5.33328ZM43.9998 38H35.8665L41.1731 45.52C41.8131 46.4266 41.5998 47.68 40.6932 48.2933C40.3465 48.5333 39.9464 48.6666 39.5464 48.6666C38.9064 48.6666 38.2931 48.3733 37.9198 47.8133L31.7865 39.1199L25.6531 47.8133C25.2531 48.3733 24.6398 48.6666 24.0265 48.6666C23.6265 48.6666 23.2264 48.56 22.8798 48.2933C21.9731 47.6533 21.7598 46.4 22.3998 45.52L27.7065 38H20.0531C18.9598 38 18.0531 37.0933 18.0531 36C18.0531 34.9066 18.9598 34 20.0531 34H44.0531C45.1464 34 46.0531 34.9066 46.0531 36C46.0531 37.0933 45.0931 38 43.9998 38ZM43.9998 30H19.9998C18.9065 30 17.9998 29.0933 17.9998 28C17.9998 26.9066 18.9065 26 19.9998 26H27.6531L22.3465 18.4799C21.7065 17.5733 21.9198 16.3199 22.8265 15.7066C23.7331 15.0666 24.9865 15.28 25.5998 16.1866L31.7331 24.88L37.8665 16.1866C38.5065 15.28 39.7598 15.0666 40.6398 15.7066C41.5464 16.3466 41.7598 17.5999 41.1198 18.4799L35.8131 26H43.9465C45.0398 26 45.9465 26.9066 45.9465 28C45.9465 29.0933 45.0931 30 43.9998 30Z" fill="#647B64"/>
</svg>
