<svg width="12" height="8" viewBox="0 0 12 8" fill="none" xmlns="http://www.w3.org/2000/svg">
<path d="M11.3827 3.57672L7.96713 0.158701C7.90131 0.107427 7.81908 0.0820071 7.73588 0.087215C7.65268 0.0924228 7.57424 0.127901 7.5153 0.186984C7.45635 0.246067 7.42096 0.32469 7.41576 0.408083C7.41057 0.491477 7.43593 0.573903 7.48708 0.639878L10.3177 3.47717H0.788396C0.697664 3.47717 0.610648 3.51329 0.54649 3.5776C0.482332 3.64191 0.446289 3.72913 0.446289 3.82007C0.446289 3.91102 0.482332 3.99824 0.54649 4.06255C0.610648 4.12685 0.697664 4.16298 0.788396 4.16298H10.3122L7.48708 6.99474C7.44877 7.02458 7.41723 7.06225 7.39456 7.10525C7.37188 7.14824 7.35859 7.19558 7.35557 7.24412C7.35254 7.29266 7.35986 7.34129 7.37702 7.38678C7.39418 7.43227 7.4208 7.47358 7.4551 7.50797C7.48941 7.54236 7.53063 7.56904 7.57601 7.58624C7.62139 7.60344 7.66991 7.61077 7.71833 7.60774C7.76676 7.6047 7.81399 7.59138 7.85688 7.56866C7.89978 7.54593 7.93736 7.51432 7.96713 7.47592L11.3827 4.05237C11.4441 3.98847 11.4783 3.90323 11.4783 3.81454C11.4783 3.72585 11.4441 3.64061 11.3827 3.57672Z" fill="#FEFEFE"/>
</svg>
