<svg width="32" height="28" viewBox="0 0 32 28" fill="none" xmlns="http://www.w3.org/2000/svg">
<path d="M14.2606 27.9304C14.5098 27.8264 14.6725 27.5838 14.6725 27.3146L14.6725 20.0117L31.3335 20.0117C31.7014 20.0117 32 19.7131 32 19.3452L32 8.6821C32 8.31422 31.7014 8.01563 31.3335 8.01563L14.6724 8.01563L14.6724 0.68477C14.6724 0.415547 14.5098 0.172941 14.2619 0.0689754C14.0126 -0.0336778 13.726 0.0223033 13.5354 0.212927L0.195873 13.5085C0.0706026 13.6338 -6.08708e-05 13.8031 -6.08687e-05 13.9803C-6.08665e-05 14.1576 0.0706026 14.3269 0.194561 14.4522L13.5341 27.7864C13.7248 27.977 14.0113 28.0343 14.2606 27.9304Z" fill="url(#paint0_linear_1:109)"/>
<defs>
<linearGradient id="paint0_linear_1:109" x1="40.2581" y1="0.0183127" x2="28.8103" y2="60.1099" gradientUnits="userSpaceOnUse">
<stop stop-color="#647B64"/>
<stop offset="1" stop-color="#6ADD6A"/>
</linearGradient>
</defs>
</svg>
