<svg width="32" height="28" viewBox="0 0 32 28" fill="none" xmlns="http://www.w3.org/2000/svg">
<path d="M17.7394 0.0696422C17.4902 0.173608 17.3276 0.416213 17.3276 0.685435L17.3276 7.98831L0.666525 7.98831C0.298648 7.98831 6.01743e-05 8.2869 6.01904e-05 8.65478L6.06565e-05 19.3179C6.06725e-05 19.6858 0.298648 19.9844 0.666526 19.9844L17.3276 19.9844L17.3277 27.3152C17.3277 27.5845 17.4903 27.8271 17.7382 27.931C17.9874 28.0337 18.274 27.9777 18.4646 27.7871L31.8042 14.4915C31.9295 14.3662 32.0001 14.1969 32.0001 14.0197C32.0001 13.8424 31.9295 13.6731 31.8055 13.5478L18.466 0.213594C18.2753 0.0229694 17.9887 -0.0343235 17.7394 0.0696422Z" fill="white"/>
</svg>
